/* XPM */
static char *vmd[] = {
/* width height num_colors chars_per_pixel */
"    32    32        4            1",
/* colors */
". c #000000",
"# c #0000ff",
"a c #00ff00",
"b c #ff0000",
/* pixels */
"................................",
"................................",
"................................",
"................................",
"................................",
"................................",
"................................",
"................................",
"................................",
"................................",
".bb....bb.aa......aa..######....",
".bb....bb.aa......aa..##...##...",
"..bb..bb..aaa....aaa..##....##..",
"..bb..bb..aaa....aaa..##....##..",
"..bb..bb..aaaa..aaaa..##....##..",
"...b..b...aaaa..aaaa..##....##..",
"...bbbb...aa.aaaa.aa..##....##..",
"...bbbb...aa.aaaa.aa..##....##..",
"....bb....aa..aa..aa..##...##...",
"....bb....aa..aa..aa..######....",
"................................",
"................................",
"................................",
"................................",
"................................",
"................................",
"................................",
"................................",
"................................",
"................................",
"................................",
"................................"
};
